<mxfile host="65bd71144e" modified="2020-11-11T12:19:17.822Z" agent="5.0 (Macintosh; Intel Mac OS X 10_14_6) AppleWebKit/537.36 (KHTML, like Gecko) Code/1.51.0 Chrome/83.0.4103.122 Electron/9.3.3 Safari/537.36" etag="QL3NxjPo3zJK1ydaQCKG" version="13.6.5">
    <diagram id="yKp5CQcjfNolYZbuaR4e" name="Page-1">
        <mxGraphModel dx="1402" dy="1243" grid="1" gridSize="10" guides="1" tooltips="1" connect="1" arrows="1" fold="1" page="1" pageScale="1" pageWidth="827" pageHeight="1169" math="0" shadow="0">
            <root>
                <mxCell id="0"/>
                <mxCell id="1" parent="0"/>
                <mxCell id="39" value="" style="rounded=0;whiteSpace=wrap;html=1;fillColor=none;strokeColor=#999999;" parent="1" vertex="1">
                    <mxGeometry x="180" y="280" width="620" height="510" as="geometry"/>
                </mxCell>
                <mxCell id="30" value="" style="rounded=0;whiteSpace=wrap;html=1;fillColor=none;strokeColor=#999999;" parent="1" vertex="1">
                    <mxGeometry x="190" y="430" width="600" height="350" as="geometry"/>
                </mxCell>
                <mxCell id="31" value="" style="rounded=0;whiteSpace=wrap;html=1;fillColor=none;strokeColor=#999999;" parent="1" vertex="1">
                    <mxGeometry x="200" y="460" width="580" height="310" as="geometry"/>
                </mxCell>
                <mxCell id="16" value="&lt;h1&gt;Container Diagram for Monitor&lt;/h1&gt;&lt;p&gt;Monitor is deployed to an Auto Scaling Group of EC2 instances behind a Network Load Balancer.&lt;br&gt;&lt;/p&gt;" style="text;html=1;strokeColor=none;fillColor=none;spacing=5;spacingTop=-20;whiteSpace=wrap;overflow=hidden;rounded=0;" parent="1" vertex="1">
                    <mxGeometry x="10" y="10" width="560" height="90" as="geometry"/>
                </mxCell>
                <mxCell id="85" style="edgeStyle=orthogonalEdgeStyle;rounded=0;orthogonalLoop=1;jettySize=auto;html=1;" parent="1" source="20" target="35" edge="1">
                    <mxGeometry relative="1" as="geometry">
                        <Array as="points">
                            <mxPoint x="318" y="510"/>
                            <mxPoint x="280" y="510"/>
                        </Array>
                    </mxGeometry>
                </mxCell>
                <mxCell id="20" value="&lt;b&gt;Load Balancer&lt;/b&gt;&lt;br&gt;[AWS NLB]&lt;br&gt;&lt;br&gt;Routes incoming requests to hosts" style="rounded=0;whiteSpace=wrap;html=1;fillColor=#dae8fc;strokeColor=#6c8ebf;" parent="1" vertex="1">
                    <mxGeometry x="220" y="340" width="195" height="80" as="geometry"/>
                </mxCell>
                <mxCell id="37" style="edgeStyle=orthogonalEdgeStyle;rounded=0;orthogonalLoop=1;jettySize=auto;html=1;" parent="1" source="21" target="34" edge="1">
                    <mxGeometry relative="1" as="geometry"/>
                </mxCell>
                <mxCell id="21" value="&lt;b&gt;Logger&lt;/b&gt;&lt;br&gt;&lt;br&gt;&lt;br&gt;Records log entries" style="rounded=0;whiteSpace=wrap;html=1;fillColor=#dae8fc;strokeColor=#6c8ebf;" parent="1" vertex="1">
                    <mxGeometry x="395" y="546" width="135" height="60" as="geometry"/>
                </mxCell>
                <mxCell id="24" value="" style="rounded=0;whiteSpace=wrap;html=1;fillColor=none;strokeColor=#999999;" parent="1" vertex="1">
                    <mxGeometry x="950" y="400" width="200" height="450" as="geometry"/>
                </mxCell>
                <mxCell id="26" value="&lt;b&gt;AWS CloudWatch Logs&lt;/b&gt;" style="rounded=0;whiteSpace=wrap;html=1;fillColor=#bac8d3;strokeColor=#23445d;" parent="1" vertex="1">
                    <mxGeometry x="980" y="670" width="120" height="60" as="geometry"/>
                </mxCell>
                <mxCell id="27" value="&lt;b&gt;AWS CloudWatch Metrics&lt;/b&gt;" style="rounded=0;whiteSpace=wrap;html=1;fillColor=#bac8d3;strokeColor=#23445d;" parent="1" vertex="1">
                    <mxGeometry x="980" y="530" width="120" height="60" as="geometry"/>
                </mxCell>
                <mxCell id="115" style="edgeStyle=orthogonalEdgeStyle;rounded=0;orthogonalLoop=1;jettySize=auto;html=1;entryX=0.5;entryY=0;entryDx=0;entryDy=0;" parent="1" source="28" target="27" edge="1">
                    <mxGeometry relative="1" as="geometry"/>
                </mxCell>
                <mxCell id="150" style="edgeStyle=orthogonalEdgeStyle;rounded=0;orthogonalLoop=1;jettySize=auto;html=1;" parent="1" source="28" target="131" edge="1">
                    <mxGeometry relative="1" as="geometry"/>
                </mxCell>
                <mxCell id="28" value="&lt;b&gt;AWS CloudWatch Alarms&lt;/b&gt;" style="rounded=0;whiteSpace=wrap;html=1;fillColor=#bac8d3;strokeColor=#23445d;" parent="1" vertex="1">
                    <mxGeometry x="980" y="413" width="120" height="60" as="geometry"/>
                </mxCell>
                <mxCell id="32" value="&lt;b&gt;EC2 AutoScaling Group &amp;amp; Security Group&lt;/b&gt;" style="text;html=1;strokeColor=none;fillColor=none;align=center;verticalAlign=middle;whiteSpace=wrap;rounded=0;" parent="1" vertex="1">
                    <mxGeometry x="300" y="433" width="450" height="20" as="geometry"/>
                </mxCell>
                <mxCell id="33" value="&lt;b&gt;EC2&lt;/b&gt;&lt;br&gt;[CentOS 8]" style="text;html=1;strokeColor=none;fillColor=none;align=center;verticalAlign=middle;whiteSpace=wrap;rounded=0;" parent="1" vertex="1">
                    <mxGeometry x="357.5" y="460" width="315" height="30" as="geometry"/>
                </mxCell>
                <mxCell id="44" style="edgeStyle=orthogonalEdgeStyle;rounded=0;orthogonalLoop=1;jettySize=auto;html=1;" parent="1" source="34" target="43" edge="1">
                    <mxGeometry relative="1" as="geometry">
                        <Array as="points">
                            <mxPoint x="580" y="700"/>
                            <mxPoint x="580" y="700"/>
                        </Array>
                    </mxGeometry>
                </mxCell>
                <mxCell id="34" value="&lt;br&gt;Local disk&lt;br&gt;(EBS)" style="shape=cylinder2;whiteSpace=wrap;html=1;boundedLbl=1;backgroundOutline=1;size=15;fillColor=#dae8fc;strokeColor=#6c8ebf;" parent="1" vertex="1">
                    <mxGeometry x="433.75" y="660" width="57.5" height="80" as="geometry"/>
                </mxCell>
                <mxCell id="160" style="edgeStyle=orthogonalEdgeStyle;rounded=0;orthogonalLoop=1;jettySize=auto;html=1;" parent="1" source="35" target="158" edge="1">
                    <mxGeometry relative="1" as="geometry"/>
                </mxCell>
                <mxCell id="35" value="&lt;b&gt;Reverse Proxy&lt;/b&gt;&lt;br&gt;[Apache]&lt;br&gt;&lt;br&gt;Provides SSL termination/authorisation by mutual TLS" style="rounded=0;whiteSpace=wrap;html=1;fillColor=#dae8fc;strokeColor=#6c8ebf;" parent="1" vertex="1">
                    <mxGeometry x="210" y="546" width="170" height="94" as="geometry"/>
                </mxCell>
                <mxCell id="153" style="edgeStyle=orthogonalEdgeStyle;rounded=0;orthogonalLoop=1;jettySize=auto;html=1;" parent="1" source="36" target="27" edge="1">
                    <mxGeometry relative="1" as="geometry"/>
                </mxCell>
                <mxCell id="36" value="&lt;b&gt;Metrics Publisher&lt;/b&gt;&lt;br&gt;[CloudWatch Agent]&lt;br&gt;&lt;br&gt;" style="rounded=0;whiteSpace=wrap;html=1;fillColor=#dae8fc;strokeColor=#6c8ebf;" parent="1" vertex="1">
                    <mxGeometry x="610" y="530" width="140" height="60" as="geometry"/>
                </mxCell>
                <mxCell id="38" value="&lt;b&gt;Virtual Private Cloud&lt;/b&gt;&lt;br&gt;[AWS]" style="text;html=1;strokeColor=none;fillColor=none;align=center;verticalAlign=middle;whiteSpace=wrap;rounded=0;" parent="1" vertex="1">
                    <mxGeometry x="280" y="290" width="470" height="20" as="geometry"/>
                </mxCell>
                <mxCell id="46" style="edgeStyle=orthogonalEdgeStyle;rounded=0;orthogonalLoop=1;jettySize=auto;html=1;" parent="1" source="43" target="26" edge="1">
                    <mxGeometry relative="1" as="geometry"/>
                </mxCell>
                <mxCell id="43" value="&lt;b&gt;Logs Publisher&lt;/b&gt;&lt;br&gt;[CloudWatch Agent]&lt;br&gt;&lt;br&gt;" style="rounded=0;whiteSpace=wrap;html=1;fillColor=#dae8fc;strokeColor=#6c8ebf;" parent="1" vertex="1">
                    <mxGeometry x="615" y="670" width="135" height="60" as="geometry"/>
                </mxCell>
                <mxCell id="63" value="container" style="rounded=0;whiteSpace=wrap;html=1;fillColor=#dae8fc;strokeColor=#6c8ebf;" parent="1" vertex="1">
                    <mxGeometry x="1080" y="960" width="70" height="30" as="geometry"/>
                </mxCell>
                <mxCell id="64" value="system" style="rounded=0;whiteSpace=wrap;html=1;fillColor=#1ba1e2;strokeColor=#006EAF;fontColor=#ffffff;" parent="1" vertex="1">
                    <mxGeometry x="1080" y="920" width="70" height="30" as="geometry"/>
                </mxCell>
                <mxCell id="65" value="person" style="rounded=0;whiteSpace=wrap;html=1;fillColor=#0050ef;strokeColor=#001DBC;fontColor=#ffffff;" parent="1" vertex="1">
                    <mxGeometry x="1080" y="880" width="70" height="30" as="geometry"/>
                </mxCell>
                <mxCell id="67" value="" style="group" parent="1" vertex="1" connectable="0">
                    <mxGeometry x="212.5" y="100" width="210" height="130" as="geometry"/>
                </mxCell>
                <mxCell id="66" value="&lt;br&gt;&lt;br&gt;&lt;br&gt;&lt;br&gt;&lt;b&gt;API Client&lt;/b&gt;&lt;br&gt;&lt;br&gt;People and Systems that require data from Monitor" style="rounded=0;whiteSpace=wrap;html=1;fillColor=#0050ef;strokeColor=#001DBC;fontColor=#ffffff;" parent="67" vertex="1">
                    <mxGeometry width="210" height="130" as="geometry"/>
                </mxCell>
                <mxCell id="12" value="" style="shape=actor;whiteSpace=wrap;html=1;" parent="67" vertex="1">
                    <mxGeometry x="82.5" y="10" width="45" height="50" as="geometry"/>
                </mxCell>
                <mxCell id="68" value="external system" style="rounded=0;whiteSpace=wrap;html=1;fillColor=#bac8d3;strokeColor=#23445d;" parent="1" vertex="1">
                    <mxGeometry x="1080" y="1000" width="70" height="30" as="geometry"/>
                </mxCell>
                <mxCell id="86" value="&lt;i&gt;&lt;font color=&quot;#666666&quot;&gt;&lt;b&gt;proxies TCP data&lt;/b&gt;&lt;br&gt;[TCP]&lt;br&gt;&lt;/font&gt;&lt;/i&gt;" style="text;html=1;strokeColor=none;fillColor=none;align=center;verticalAlign=middle;whiteSpace=wrap;rounded=0;" parent="1" vertex="1">
                    <mxGeometry x="318" y="480" width="110" height="20" as="geometry"/>
                </mxCell>
                <mxCell id="103" value="&lt;i&gt;&lt;font color=&quot;#666666&quot;&gt;&lt;b&gt;writes error logs&lt;/b&gt;&lt;/font&gt;&lt;/i&gt;" style="text;html=1;strokeColor=none;fillColor=none;align=center;verticalAlign=middle;whiteSpace=wrap;rounded=0;" parent="1" vertex="1">
                    <mxGeometry x="463" y="620" width="110" height="20" as="geometry"/>
                </mxCell>
                <mxCell id="106" value="&lt;i&gt;&lt;font color=&quot;#666666&quot;&gt;&lt;b&gt;publishes logs to&lt;/b&gt;&lt;br&gt;[HTTPS]&lt;br&gt;&lt;/font&gt;&lt;/i&gt;" style="text;html=1;strokeColor=none;fillColor=none;align=center;verticalAlign=middle;whiteSpace=wrap;rounded=0;" parent="1" vertex="1">
                    <mxGeometry x="821" y="673" width="110" height="20" as="geometry"/>
                </mxCell>
                <mxCell id="111" value="&lt;i&gt;&lt;font color=&quot;#666666&quot;&gt;&lt;b&gt;publishes EC2 metrics to&lt;/b&gt;&lt;br&gt;[HTTPS]&lt;br&gt;&lt;/font&gt;&lt;/i&gt;" style="text;html=1;strokeColor=none;fillColor=none;align=center;verticalAlign=middle;whiteSpace=wrap;rounded=0;" parent="1" vertex="1">
                    <mxGeometry x="816" y="526" width="110" height="20" as="geometry"/>
                </mxCell>
                <mxCell id="113" style="edgeStyle=orthogonalEdgeStyle;rounded=0;orthogonalLoop=1;jettySize=auto;html=1;entryX=0.5;entryY=0;entryDx=0;entryDy=0;" parent="1" source="66" target="20" edge="1">
                    <mxGeometry relative="1" as="geometry"/>
                </mxCell>
                <mxCell id="114" value="&lt;i&gt;&lt;font color=&quot;#666666&quot;&gt;&lt;b&gt;requests data from&lt;/b&gt;&lt;br&gt;[HTTPS]&lt;br&gt;&lt;/font&gt;&lt;/i&gt;" style="text;html=1;strokeColor=none;fillColor=none;align=center;verticalAlign=middle;whiteSpace=wrap;rounded=0;" parent="1" vertex="1">
                    <mxGeometry x="305" y="245" width="110" height="20" as="geometry"/>
                </mxCell>
                <mxCell id="116" value="&lt;i&gt;&lt;font color=&quot;#666666&quot;&gt;&lt;b&gt;monitors metrics&lt;/b&gt;&lt;/font&gt;&lt;/i&gt;" style="text;html=1;strokeColor=none;fillColor=none;align=center;verticalAlign=middle;whiteSpace=wrap;rounded=0;" parent="1" vertex="1">
                    <mxGeometry x="1040" y="480" width="110" height="20" as="geometry"/>
                </mxCell>
                <mxCell id="117" value="" style="group" parent="1" vertex="1" connectable="0">
                    <mxGeometry x="935" y="82" width="210" height="130" as="geometry"/>
                </mxCell>
                <mxCell id="118" value="&lt;br&gt;&lt;br&gt;&lt;br&gt;&lt;br&gt;&lt;b&gt;Belfrage&lt;br&gt;Engineers&lt;/b&gt;&lt;br&gt;&lt;br&gt;Team supporting the Platform" style="rounded=0;whiteSpace=wrap;html=1;fillColor=#0050ef;strokeColor=#001DBC;fontColor=#ffffff;" parent="117" vertex="1">
                    <mxGeometry width="210" height="130" as="geometry"/>
                </mxCell>
                <mxCell id="119" value="" style="shape=actor;whiteSpace=wrap;html=1;" parent="117" vertex="1">
                    <mxGeometry x="82.5" y="10" width="45" height="50" as="geometry"/>
                </mxCell>
                <mxCell id="126" style="edgeStyle=orthogonalEdgeStyle;rounded=0;orthogonalLoop=1;jettySize=auto;html=1;entryX=0.797;entryY=0.002;entryDx=0;entryDy=0;entryPerimeter=0;" parent="1" source="121" target="31" edge="1">
                    <mxGeometry relative="1" as="geometry">
                        <Array as="points">
                            <mxPoint x="662" y="310"/>
                            <mxPoint x="662" y="310"/>
                        </Array>
                    </mxGeometry>
                </mxCell>
                <mxCell id="121" value="&lt;b&gt;Cosmos Bastions&lt;/b&gt;&lt;br&gt;&lt;br&gt;Allows&amp;nbsp;secure access to EC2 instances managed by Cosmos" style="rounded=0;whiteSpace=wrap;html=1;fillColor=#bac8d3;strokeColor=#23445d;" parent="1" vertex="1">
                    <mxGeometry x="590" y="122" width="170" height="90" as="geometry"/>
                </mxCell>
                <mxCell id="123" value="&lt;i&gt;&lt;font color=&quot;#666666&quot;&gt;&lt;b&gt;SSH access&lt;/b&gt;&lt;br&gt;[SSH]&lt;br&gt;&lt;/font&gt;&lt;/i&gt;" style="text;html=1;strokeColor=none;fillColor=none;align=center;verticalAlign=middle;whiteSpace=wrap;rounded=0;" parent="1" vertex="1">
                    <mxGeometry x="760" y="140" width="110" height="20" as="geometry"/>
                </mxCell>
                <mxCell id="124" value="&lt;i&gt;&lt;font color=&quot;#666666&quot;&gt;&lt;b&gt;SSH access&lt;/b&gt;&lt;br&gt;[SSH]&lt;br&gt;&lt;/font&gt;&lt;/i&gt;" style="text;html=1;strokeColor=none;fillColor=none;align=center;verticalAlign=middle;whiteSpace=wrap;rounded=0;" parent="1" vertex="1">
                    <mxGeometry x="710" y="240" width="110" height="20" as="geometry"/>
                </mxCell>
                <mxCell id="127" value="&lt;i&gt;&lt;font color=&quot;#666666&quot;&gt;&lt;b&gt;alerts when alarms are fired&lt;/b&gt;&lt;br&gt;[Slack]&lt;br&gt;&lt;/font&gt;&lt;/i&gt;" style="text;html=1;strokeColor=none;fillColor=none;align=center;verticalAlign=middle;whiteSpace=wrap;rounded=0;" parent="1" vertex="1">
                    <mxGeometry x="855" y="230" width="196" height="20" as="geometry"/>
                </mxCell>
                <mxCell id="130" value="&lt;b&gt;ETS&lt;/b&gt;&lt;br&gt;Erlang Term Storage" style="rounded=0;whiteSpace=wrap;html=1;fillColor=#dae8fc;strokeColor=#6c8ebf;" parent="1" vertex="1">
                    <mxGeometry x="940" y="880" width="120" height="30" as="geometry"/>
                </mxCell>
                <mxCell id="151" style="edgeStyle=orthogonalEdgeStyle;rounded=0;orthogonalLoop=1;jettySize=auto;html=1;" parent="1" source="131" target="118" edge="1">
                    <mxGeometry relative="1" as="geometry"/>
                </mxCell>
                <mxCell id="131" value="&lt;b&gt;Alarms Lambda&lt;/b&gt;&lt;br&gt;&lt;br&gt;" style="rounded=0;whiteSpace=wrap;html=1;fillColor=#dae8fc;strokeColor=#6c8ebf;" parent="1" vertex="1">
                    <mxGeometry x="980" y="270" width="120" height="60" as="geometry"/>
                </mxCell>
                <mxCell id="135" value="&lt;i&gt;&lt;font color=&quot;#666666&quot;&gt;&lt;b&gt;publishes messages to&lt;/b&gt;&lt;br&gt;[SNS]&lt;br&gt;&lt;/font&gt;&lt;/i&gt;" style="text;html=1;strokeColor=none;fillColor=none;align=center;verticalAlign=middle;whiteSpace=wrap;rounded=0;" parent="1" vertex="1">
                    <mxGeometry x="1028" y="350" width="110" height="20" as="geometry"/>
                </mxCell>
                <mxCell id="136" style="edgeStyle=orthogonalEdgeStyle;rounded=0;orthogonalLoop=1;jettySize=auto;html=1;entryX=1;entryY=0.5;entryDx=0;entryDy=0;" parent="1" source="118" target="121" edge="1">
                    <mxGeometry relative="1" as="geometry">
                        <Array as="points">
                            <mxPoint x="860" y="167"/>
                            <mxPoint x="860" y="167"/>
                        </Array>
                    </mxGeometry>
                </mxCell>
                <mxCell id="147" value="&lt;b&gt;GenServer&lt;/b&gt;&lt;br&gt;Elixir Process running in memory" style="rounded=0;whiteSpace=wrap;html=1;fillColor=#dae8fc;strokeColor=#6c8ebf;" parent="1" vertex="1">
                    <mxGeometry x="940" y="923" width="120" height="57" as="geometry"/>
                </mxCell>
                <mxCell id="152" value="&lt;i&gt;&lt;font color=&quot;#666666&quot;&gt;&lt;b&gt;publishes logs&lt;/b&gt;&lt;/font&gt;&lt;/i&gt;" style="text;html=1;strokeColor=none;fillColor=none;align=center;verticalAlign=middle;whiteSpace=wrap;rounded=0;" parent="1" vertex="1">
                    <mxGeometry x="499" y="680" width="110" height="20" as="geometry"/>
                </mxCell>
                <mxCell id="154" value="&lt;b&gt;AWS S3&lt;/b&gt;" style="rounded=0;whiteSpace=wrap;html=1;fillColor=#bac8d3;strokeColor=#23445d;" parent="1" vertex="1">
                    <mxGeometry x="980" y="770" width="120" height="60" as="geometry"/>
                </mxCell>
                <mxCell id="157" value="&lt;i&gt;&lt;font color=&quot;#666666&quot;&gt;&lt;b&gt;requests static content from&lt;/b&gt;&lt;br&gt;[HTTPS]&lt;br&gt;&lt;/font&gt;&lt;/i&gt;" style="text;html=1;strokeColor=none;fillColor=none;align=center;verticalAlign=middle;whiteSpace=wrap;rounded=0;" parent="1" vertex="1">
                    <mxGeometry x="825" y="780" width="110" height="20" as="geometry"/>
                </mxCell>
                <mxCell id="158" value="&lt;b&gt;Application Server&lt;/b&gt;&lt;br&gt;[Cowboy]" style="rounded=0;whiteSpace=wrap;html=1;fillColor=#dae8fc;strokeColor=#6c8ebf;" parent="1" vertex="1">
                    <mxGeometry x="235" y="693" width="120" height="60" as="geometry"/>
                </mxCell>
                <mxCell id="159" value="&lt;i&gt;&lt;font color=&quot;#666666&quot;&gt;&lt;b&gt;proxies requests&lt;/b&gt;&lt;br&gt;[HTTP]&lt;br&gt;&lt;/font&gt;&lt;/i&gt;" style="text;html=1;strokeColor=none;fillColor=none;align=center;verticalAlign=middle;whiteSpace=wrap;rounded=0;" parent="1" vertex="1">
                    <mxGeometry x="293" y="660" width="110" height="20" as="geometry"/>
                </mxCell>
                <mxCell id="161" value="&lt;b&gt;Cowboy&lt;/b&gt;&lt;br&gt;Elixir HTTP server" style="rounded=0;whiteSpace=wrap;html=1;fillColor=#dae8fc;strokeColor=#6c8ebf;" parent="1" vertex="1">
                    <mxGeometry x="940" y="990" width="120" height="30" as="geometry"/>
                </mxCell>
                <mxCell id="163" style="edgeStyle=orthogonalEdgeStyle;rounded=0;orthogonalLoop=1;jettySize=auto;html=1;entryX=0;entryY=0.75;entryDx=0;entryDy=0;" parent="1" source="66" target="154" edge="1">
                    <mxGeometry relative="1" as="geometry">
                        <Array as="points">
                            <mxPoint x="150" y="165"/>
                            <mxPoint x="150" y="815"/>
                        </Array>
                    </mxGeometry>
                </mxCell>
                <mxCell id="164" value="&lt;b&gt;Legend&lt;/b&gt;" style="text;html=1;strokeColor=none;fillColor=none;align=center;verticalAlign=middle;whiteSpace=wrap;rounded=0;" parent="1" vertex="1">
                    <mxGeometry x="1080" y="857" width="70" height="20" as="geometry"/>
                </mxCell>
            </root>
        </mxGraphModel>
    </diagram>
</mxfile>
